<svg width="68" height="69" viewBox="0 0 68 69" fill="none" xmlns="http://www.w3.org/2000/svg">
<path fill-rule="evenodd" clip-rule="evenodd" d="M25.2144 3.6987C26.3585 2.52788 27.725 1.59755 29.2338 0.962375C30.7425 0.327201 32.363 0 34 0C35.637 0 37.2575 0.327201 38.7662 0.962375C40.275 1.59755 41.6415 2.52788 42.7856 3.6987L45.4294 6.41048L49.2123 6.36372C50.8498 6.34434 52.4746 6.65257 53.9912 7.27029C55.5078 7.888 56.8856 8.80273 58.0436 9.96068C59.2015 11.1186 60.1163 12.4964 60.734 14.0131C61.3517 15.5297 61.6599 17.1545 61.6405 18.792L61.598 22.5749L64.3013 25.2186C65.4721 26.3627 66.4025 27.7293 67.0376 29.238C67.6728 30.7468 68 32.3673 68 34.0043C68 35.6413 67.6728 37.2617 67.0376 38.7705C66.4025 40.2792 65.4721 41.6458 64.3013 42.7899L61.5938 45.4337L61.6405 49.2165C61.6599 50.854 61.3517 52.4788 60.734 53.9955C60.1163 55.5121 59.2015 56.8899 58.0436 58.0478C56.8856 59.2058 55.5078 60.1205 53.9912 60.7382C52.4746 61.3559 50.8498 61.6642 49.2123 61.6448L45.4294 61.6023L42.7856 64.3056C41.6415 65.4764 40.275 66.4067 38.7662 67.0419C37.2575 67.6771 35.637 68.0043 34 68.0043C32.363 68.0043 30.7425 67.6771 29.2338 67.0419C27.725 66.4067 26.3585 65.4764 25.2144 64.3056L22.5706 61.598L18.7877 61.6448C17.1502 61.6642 15.5254 61.3559 14.0088 60.7382C12.4922 60.1205 11.1144 59.2058 9.95643 58.0478C8.79848 56.8899 7.88375 55.5121 7.26604 53.9955C6.64832 52.4788 6.34009 50.854 6.35947 49.2165L6.40197 45.4337L3.6987 42.7899C2.52788 41.6458 1.59755 40.2792 0.962374 38.7705C0.327201 37.2617 0 35.6413 0 34.0043C0 32.3673 0.327201 30.7468 0.962374 29.238C1.59755 27.7293 2.52788 26.3627 3.6987 25.2186L6.40622 22.5749L6.35947 18.792C6.34009 17.1545 6.64832 15.5297 7.26604 14.0131C7.88375 12.4964 8.79848 11.1186 9.95643 9.96068C11.1144 8.80273 12.4922 7.888 14.0088 7.27029C15.5254 6.65257 17.1502 6.34434 18.7877 6.36372L22.5706 6.40623L25.2144 3.70295V3.6987ZM29.7581 46.7555C29.7581 46.1974 29.868 45.6447 30.0816 45.129C30.2952 44.6133 30.6083 44.1447 31.003 43.75C31.3977 43.3553 31.8662 43.0423 32.3819 42.8287C32.8976 42.6151 33.4503 42.5051 34.0085 42.5051C34.5667 42.5051 35.1194 42.6151 35.6351 42.8287C36.1508 43.0423 36.6193 43.3553 37.014 43.75C37.4087 44.1447 37.7218 44.6133 37.9354 45.129C38.149 45.6447 38.2589 46.1974 38.2589 46.7555C38.2589 47.8828 37.8111 48.9639 37.014 49.761C36.2169 50.5582 35.1358 51.006 34.0085 51.006C32.8812 51.006 31.8001 50.5582 31.003 49.761C30.2059 48.9639 29.7581 47.8828 29.7581 46.7555ZM36.5673 38.1399C36.3547 39.7806 35.6407 40.8049 34.2125 40.8049C32.6101 40.8049 31.726 39.4576 31.726 37.6384V37.1708C31.726 34.0808 33.0309 32.0363 35.6619 30.1959C38.2717 28.3257 39.1558 26.957 39.1558 24.5641C39.1558 21.8523 37.3706 19.9566 34.7778 19.9566C32.4401 19.9566 30.8844 21.3295 30.2129 23.8415C29.7496 25.3886 28.9717 26.0092 27.8156 26.0092C26.362 26.0135 25.4991 24.9636 25.4991 23.2932C25.4991 22.2263 25.6904 21.304 26.09 20.3604C27.3948 16.9685 30.6762 14.8773 35.0116 14.8773C40.7114 14.8773 44.6261 18.7112 44.6261 24.343C44.6261 28.1514 43.0279 30.7654 40.1631 32.7844C37.4088 34.6758 36.7373 35.8702 36.5673 38.1399Z" fill="#436599"/>
</svg>
